<?xml version="1.0" encoding="UTF-8" standalone="no"?>
<!DOCTYPE svg PUBLIC "-//W3C//DTD SVG 1.1//EN" "http://www.w3.org/Graphics/SVG/1.1/DTD/svg11.dtd">
<svg width="100%" height="100%" viewBox="0 0 500 500" version="1.1" xmlns="http://www.w3.org/2000/svg" xmlns:xlink="http://www.w3.org/1999/xlink" xml:space="preserve" xmlns:serif="http://www.serif.com/" style="fill-rule:evenodd;clip-rule:evenodd;stroke-linejoin:round;stroke-miterlimit:2;">
    <g transform="matrix(1,0,0,1,-1255,-2.30044)">
        <g id="Artboard1" transform="matrix(0.625,0,0,0.625,1255,2.30044)">
            <rect x="0" y="0" width="800" height="800" style="fill:rgb(230,230,230);fill-opacity:0;"/>
            <g transform="matrix(2.78429,0,0,2.78429,-3150.71,-728.309)">
                <path d="M1328.5,480.625C1334.28,484.232 1336.39,482.84 1342.76,482.934C1349.04,483.026 1353.42,483.558 1356.43,479.365C1361.44,472.391 1358.88,458.939 1360.26,448.921C1360.8,445.033 1366.27,440.034 1365.75,419.406C1365.05,391.9 1348.91,388.812 1348.91,388.812C1348.91,388.812 1345.02,352.879 1320.58,338C1307.3,329.917 1248.37,326.677 1229.75,338.572C1211.8,350.036 1200,390.812 1200,390.812C1200,390.812 1184.9,391.196 1184.75,421.064C1184.63,445.185 1191.36,446.406 1191.69,450.51C1192.13,455.939 1190.74,475.758 1195.25,479.813C1198.02,482.307 1197.17,482.874 1209.07,482.71C1222.14,482.529 1222.12,480.561 1224.61,477.304C1227.84,473.084 1226.75,457.625 1226.75,457.625L1323.25,457.281C1323.25,457.281 1320.93,475.896 1328.5,480.625Z" style="fill:rgb(185,185,185);"/>
            </g>
            <g transform="matrix(2.78429,0,0,2.78429,-2859.01,-1103.31)">
                <path d="M1109.5,547C1117.5,547 1127,558.825 1127,566C1127,573.175 1117.5,573 1109.5,573C1101.5,573 1095,567.175 1095,560C1095,552.825 1101.5,547 1109.5,547Z" style="fill:rgb(224,224,224);"/>
            </g>
            <g transform="matrix(-2.61027,0,0,2.78429,3467.07,-1103.31)">
                <path d="M1109.5,547C1117.5,547 1127,558.825 1127,566C1127,573.175 1117.5,573 1109.5,573C1101.5,573 1095,567.175 1095,560C1095,552.825 1101.5,547 1109.5,547Z" style="fill:rgb(224,224,224);"/>
            </g>
            <g transform="matrix(3.24106,0,0,3.24106,-3716.36,-1533.82)">
                <path d="M1301.25,582C1326.53,583 1310.48,555.651 1301.25,551C1291,545.833 1250,545.833 1239.75,551C1230.52,555.651 1212.47,582 1239.75,582L1301.25,582Z" style="fill:rgb(224,224,224);"/>
            </g>
        </g>
    </g>
</svg>
