<?xml version="1.0" encoding="UTF-8" standalone="no"?>
<!DOCTYPE svg PUBLIC "-//W3C//DTD SVG 1.1//EN" "http://www.w3.org/Graphics/SVG/1.1/DTD/svg11.dtd">
<svg width="100%" height="100%" viewBox="0 0 500 500" version="1.1" xmlns="http://www.w3.org/2000/svg" xmlns:xlink="http://www.w3.org/1999/xlink" xml:space="preserve" xmlns:serif="http://www.serif.com/" style="fill-rule:evenodd;clip-rule:evenodd;stroke-linecap:round;stroke-linejoin:round;stroke-miterlimit:1.5;">
    <g transform="matrix(1,0,0,1,-3442.26,0)">
        <g id="Artboard1" transform="matrix(0.625,0,0,0.625,3442.26,0)">
            <rect x="0" y="0" width="800" height="800" style="fill:rgb(230,230,230);fill-opacity:0;"/>
            <g transform="matrix(1.588,0,0,1.59579,-5487.91,108.416)">
                <path d="M3715.72,243.472C3733.71,231.606 3640.52,109.982 3618.39,128.442C3593.48,149.225 3549.08,288.542 3554.64,295.098C3561.66,303.371 3688.57,261.373 3715.72,243.472Z" style="fill:rgb(177,177,177);"/>
            </g>
            <g transform="matrix(1.588,0,0,1.59579,-5487.91,108.416)">
                <path d="M3589.29,290.489C3589.29,290.489 3582.09,291.272 3570.38,279.778C3559.64,269.254 3561.1,260.655 3561.1,260.655L3556.89,276.592C3556.89,276.592 3555.83,281.99 3562.31,288.093C3569.02,294.414 3574.67,293.982 3574.67,293.982L3589.29,290.489Z" style="fill:rgb(194,194,194);"/>
            </g>
            <g transform="matrix(1.588,0,0,1.59579,-5487.91,108.416)">
                <path d="M3682.68,259.21C3682.68,259.21 3652.06,262.45 3615.7,225.149C3588.7,197.458 3597.03,162.562 3597.03,162.562L3589.2,180.281C3589.2,180.281 3583.01,210.239 3605.5,234.59C3633.2,264.598 3664.35,266.316 3664.35,266.316L3682.68,259.21Z" style="fill:rgb(194,194,194);"/>
            </g>
            <g transform="matrix(1.588,0,0,1.59579,-5487.91,108.416)">
                <path d="M3638.86,275.371C3638.86,275.371 3614.59,271.578 3599.21,254.645C3583.56,237.411 3577.38,210.693 3577.38,210.693L3570.47,230.546C3570.47,230.546 3576.77,252.072 3587.98,264.32C3597.85,275.096 3617.2,282.419 3617.2,282.419L3638.86,275.371Z" style="fill:rgb(194,194,194);"/>
            </g>
            <g transform="matrix(0.392442,-0.353155,0.516692,0.574171,-941.272,1412.65)">
                <circle cx="3078.5" cy="136.145" r="155.61" style="fill:rgb(128,128,128);"/>
            </g>
            <g transform="matrix(2.22867,0,0,2.22867,-8019.78,-97.5767)">
                <path d="M3741.75,137.065C3749.15,122.233 3732.66,106.634 3732.66,106.634L3736.52,106.946C3736.52,106.946 3737.73,114.959 3737.02,124.083C3736.12,135.498 3730.81,146.547 3729.88,149.344C3722.89,170.299 3739.28,183.618 3740.31,194.839C3740.86,200.798 3725.38,212.582 3725.38,212.582L3726.88,223.559C3726.88,223.559 3734.92,209.503 3736.78,195.553C3737.67,188.876 3746.2,182.016 3735.82,169.745C3732.8,166.184 3717.23,161.226 3720.68,152.143C3722.17,148.222 3737.37,145.856 3741.75,137.065Z" style="fill:rgb(194,194,194);stroke:rgb(196,196,196);stroke-width:0.67px;"/>
            </g>
            <g transform="matrix(-0.432544,-2.18629,2.18629,-0.432544,1720.23,8690.42)">
                <path d="M3738.45,135.402C3745.85,120.571 3726.39,112.858 3726.39,112.858L3729.57,106.378C3729.57,106.378 3737.73,114.959 3737.02,124.083C3736.12,135.498 3730.81,146.547 3729.88,149.344C3722.89,170.299 3723.23,180.041 3724.27,191.262C3724.81,197.221 3693.96,211.456 3693.96,211.456L3698.47,217.281C3698.47,217.281 3724.78,207.699 3726.64,193.75C3727.53,187.072 3725.09,190.756 3727.75,174.808C3728.52,170.208 3719.91,163.977 3723.36,154.894C3724.85,150.973 3734.07,144.194 3738.45,135.402Z" style="fill:rgb(194,194,194);stroke:rgb(196,196,196);stroke-width:0.67px;"/>
            </g>
            <g transform="matrix(-1.31139,-1.80201,1.80201,-1.31139,5146.7,7235.63)">
                <path d="M3738.45,135.402C3739.98,132.341 3734.95,123.885 3735.6,121.22C3738.09,110.974 3741.21,109.675 3741.21,109.675L3734.76,111.201C3734.76,111.201 3725,116.227 3728.35,123.694C3733.03,134.141 3731.74,154.745 3730.81,157.541C3723.82,178.496 3727.01,171.193 3724.76,183.475C3723.68,189.362 3717.14,200.276 3717.14,200.276L3721.65,206.102C3721.65,206.102 3728.45,193.557 3731.45,177.671C3732.91,169.969 3723.35,165.068 3723.97,156.431C3724.27,152.248 3734.07,144.194 3738.45,135.402Z" style="fill:rgb(194,194,194);stroke:rgb(196,196,196);stroke-width:0.67px;"/>
            </g>
            <g transform="matrix(-2.19338,0.39504,-0.39504,-2.19338,8654.54,-822.062)">
                <path d="M3731.45,177.671C3732.91,169.969 3727.01,171.193 3724.76,183.475C3723.68,189.362 3717.14,200.276 3717.14,200.276L3721.65,206.102C3721.65,206.102 3728.45,193.557 3731.45,177.671Z" style="fill:rgb(194,194,194);stroke:rgb(196,196,196);stroke-width:0.67px;"/>
            </g>
            <g transform="matrix(-0.954441,2.01395,-2.01395,-0.954441,4368.2,-6920.25)">
                <path d="M3729.99,178.366C3728.98,177.126 3725.89,178.49 3725.5,180.038C3724.97,182.159 3726.78,191.094 3726.78,191.094L3732.04,196.81L3736.72,198.622C3736.72,198.622 3734.31,194.389 3733.03,189.311C3731.68,183.923 3731.24,179.911 3729.99,178.366Z" style="fill:rgb(194,194,194);stroke:rgb(196,196,196);stroke-width:0.67px;"/>
            </g>
        </g>
    </g>
</svg>
